<svg width="200" height="80" viewBox="0 0 200 80" xmlns="http://www.w3.org/2000/svg">
  <defs>
    <linearGradient id="goldGradient" x1="0%" y1="0%" x2="100%" y2="100%">
      <stop offset="0%" stop-color="#d4af37"/>
      <stop offset="100%" stop-color="#f9f3d0"/>
    </linearGradient>
  </defs>
  
  <!-- Hotel Building -->
  <rect x="20" y="25" width="160" height="40" rx="8" fill="url(#goldGradient)" stroke="#d4af37" stroke-width="2"/>
  
  <!-- Windows -->
  <rect x="35" y="35" width="12" height="12" rx="2" fill="#0f172a" opacity="0.8"/>
  <rect x="52" y="35" width="12" height="12" rx="2" fill="#0f172a" opacity="0.8"/>
  <rect x="69" y="35" width="12" height="12" rx="2" fill="#0f172a" opacity="0.8"/>
  <rect x="86" y="35" width="12" height="12" rx="2" fill="#0f172a" opacity="0.8"/>
  <rect x="103" y="35" width="12" height="12" rx="2" fill="#0f172a" opacity="0.8"/>
  <rect x="120" y="35" width="12" height="12" rx="2" fill="#0f172a" opacity="0.8"/>
  <rect x="137" y="35" width="12" height="12" rx="2" fill="#0f172a" opacity="0.8"/>
  <rect x="154" y="35" width="12" height="12" rx="2" fill="#0f172a" opacity="0.8"/>
  
  <!-- Door -->
  <rect x="85" y="45" width="30" height="20" rx="4" fill="#0f172a" opacity="0.9"/>
  
  <!-- Roof -->
  <polygon points="20,25 100,10 180,25" fill="url(#goldGradient)" stroke="#d4af37" stroke-width="2"/>
  
  <!-- Text -->
  <text x="100" y="72" text-anchor="middle" font-family="Arial, sans-serif" font-size="14" font-weight="bold" fill="#0f172a">JX CLOUD</text>
</svg>